<svg width="851" height="621" viewBox="0 0 851 621" fill="none" xmlns="http://www.w3.org/2000/svg">
<path d="M785.682 234.5C850 320.528 889.5 462.5 789 482.5C767.218 486.835 747.182 492.5 684.182 563.5C672.203 577 649.626 597.738 636.5 604.5C620 613 592 612.5 575.182 594C566.803 584.783 538.5 538.5 486.182 594C451.835 630.435 385 624.5 364 606C350.805 594.375 317.84 582.075 276.5 555.5C241.5 533 218.5 514 159 543C99.8729 571.818 15.2112 507 3.18156 449C-10.8184 381.5 31.5 313 31.5 241.5C31.5 192 -6.42594 205.5 17.5 137.5C32.1885 95.7537 51 94 117 105C164.92 112.987 249.182 62 285.182 33.4992C321.182 4.9985 434 -17 455.5 19.5C477 56 470.5 61 496 61C516.5 61 558 49 574.5 69C595 93.8486 594.5 99 627 107C660.089 115.145 658.622 112.042 679 115C710 119.5 722.5 140 727 151.5C737.825 179.164 764 205.5 785.682 234.5Z" fill="url(#paint0_linear)"/>
<defs>
<linearGradient id="paint0_linear" x1="413.665" y1="-25" x2="413.665" y2="613.821" gradientUnits="userSpaceOnUse">
<stop stop-color="#7EA3EE" stop-opacity="0.95"/>
<stop offset="1" stop-color="#D6E3FD" stop-opacity="0.51"/>
</linearGradient>
</defs>
</svg>
